<mxfile host="app.diagrams.net" agent="Mozilla/5.0 (Windows NT 10.0; Win64; x64) AppleWebKit/537.36 (KHTML, like Gecko) Chrome/136.0.0.0 Safari/537.36" version="27.0.5">
  <diagram name="Страница — 1" id="Y825HXs76NSJxmtosNQ2">
    <mxGraphModel dx="802" dy="788" grid="1" gridSize="10" guides="1" tooltips="1" connect="1" arrows="1" fold="1" page="1" pageScale="1" pageWidth="850" pageHeight="1100" math="0" shadow="0">
      <root>
        <mxCell id="0" />
        <mxCell id="1" parent="0" />
        <mxCell id="SSB4KYdZMmBcstQJJJUT-1" value="&lt;span style=&quot;font-size:11.0pt;line-height:107%;&lt;br/&gt;font-family:&amp;quot;Calibri&amp;quot;,sans-serif;mso-ascii-theme-font:minor-latin;mso-fareast-font-family:&lt;br/&gt;Calibri;mso-fareast-theme-font:minor-latin;mso-hansi-theme-font:minor-latin;&lt;br/&gt;mso-bidi-font-family:&amp;quot;Times New Roman&amp;quot;;mso-bidi-theme-font:minor-bidi;&lt;br/&gt;mso-ansi-language:RU;mso-fareast-language:EN-US;mso-bidi-language:AR-SA&quot;&gt;q_error&lt;/span&gt;" style="ellipse;whiteSpace=wrap;html=1;aspect=fixed;" vertex="1" parent="1">
          <mxGeometry x="440" y="520" width="80" height="80" as="geometry" />
        </mxCell>
        <mxCell id="SSB4KYdZMmBcstQJJJUT-49" style="edgeStyle=orthogonalEdgeStyle;rounded=0;orthogonalLoop=1;jettySize=auto;html=1;entryX=0.5;entryY=1;entryDx=0;entryDy=0;" edge="1" parent="1" source="SSB4KYdZMmBcstQJJJUT-3" target="SSB4KYdZMmBcstQJJJUT-1">
          <mxGeometry relative="1" as="geometry" />
        </mxCell>
        <mxCell id="SSB4KYdZMmBcstQJJJUT-55" style="edgeStyle=orthogonalEdgeStyle;rounded=0;orthogonalLoop=1;jettySize=auto;html=1;exitX=0.98;exitY=0.691;exitDx=0;exitDy=0;exitPerimeter=0;entryX=0.875;entryY=0.875;entryDx=0;entryDy=0;entryPerimeter=0;" edge="1" parent="1" source="SSB4KYdZMmBcstQJJJUT-3" target="SSB4KYdZMmBcstQJJJUT-3">
          <mxGeometry relative="1" as="geometry">
            <mxPoint x="380" y="689.51" as="targetPoint" />
            <mxPoint x="370" y="679.51" as="sourcePoint" />
            <Array as="points">
              <mxPoint x="380" y="665" />
              <mxPoint x="380" y="680" />
            </Array>
          </mxGeometry>
        </mxCell>
        <mxCell id="SSB4KYdZMmBcstQJJJUT-3" value="&lt;span style=&quot;font-size:11.0pt;line-height:107%;&lt;br/&gt;font-family:&amp;quot;Calibri&amp;quot;,sans-serif;mso-ascii-theme-font:minor-latin;mso-fareast-font-family:&lt;br/&gt;Calibri;mso-fareast-theme-font:minor-latin;mso-hansi-theme-font:minor-latin;&lt;br/&gt;mso-bidi-font-family:&amp;quot;Times New Roman&amp;quot;;mso-bidi-theme-font:minor-bidi;&lt;br/&gt;mso-ansi-language:RU;mso-fareast-language:EN-US;mso-bidi-language:AR-SA&quot;&gt;q2+_0_c&lt;/span&gt;" style="ellipse;whiteSpace=wrap;html=1;aspect=fixed;" vertex="1" parent="1">
          <mxGeometry x="290" y="610" width="80" height="80" as="geometry" />
        </mxCell>
        <mxCell id="SSB4KYdZMmBcstQJJJUT-45" style="edgeStyle=orthogonalEdgeStyle;rounded=0;orthogonalLoop=1;jettySize=auto;html=1;entryX=0.5;entryY=1;entryDx=0;entryDy=0;" edge="1" parent="1" source="SSB4KYdZMmBcstQJJJUT-4" target="SSB4KYdZMmBcstQJJJUT-3">
          <mxGeometry relative="1" as="geometry" />
        </mxCell>
        <mxCell id="SSB4KYdZMmBcstQJJJUT-4" value="&lt;span style=&quot;font-size:11.0pt;line-height:107%;&lt;br/&gt;font-family:&amp;quot;Calibri&amp;quot;,sans-serif;mso-ascii-theme-font:minor-latin;mso-fareast-font-family:&lt;br/&gt;Calibri;mso-fareast-theme-font:minor-latin;mso-hansi-theme-font:minor-latin;&lt;br/&gt;mso-bidi-font-family:&amp;quot;Times New Roman&amp;quot;;mso-bidi-theme-font:minor-bidi;&lt;br/&gt;mso-ansi-language:RU;mso-fareast-language:EN-US;mso-bidi-language:AR-SA&quot;&gt;q2+_0&lt;/span&gt;" style="ellipse;whiteSpace=wrap;html=1;aspect=fixed;" vertex="1" parent="1">
          <mxGeometry x="160" y="700" width="80" height="80" as="geometry" />
        </mxCell>
        <mxCell id="SSB4KYdZMmBcstQJJJUT-40" style="edgeStyle=orthogonalEdgeStyle;rounded=0;orthogonalLoop=1;jettySize=auto;html=1;entryX=0;entryY=0.5;entryDx=0;entryDy=0;" edge="1" parent="1" source="SSB4KYdZMmBcstQJJJUT-5" target="SSB4KYdZMmBcstQJJJUT-3">
          <mxGeometry relative="1" as="geometry" />
        </mxCell>
        <mxCell id="SSB4KYdZMmBcstQJJJUT-41" style="edgeStyle=orthogonalEdgeStyle;rounded=0;orthogonalLoop=1;jettySize=auto;html=1;entryX=0.007;entryY=0.63;entryDx=0;entryDy=0;entryPerimeter=0;" edge="1" parent="1" source="SSB4KYdZMmBcstQJJJUT-5" target="SSB4KYdZMmBcstQJJJUT-16">
          <mxGeometry relative="1" as="geometry">
            <mxPoint x="620" y="610" as="targetPoint" />
            <Array as="points">
              <mxPoint x="250" y="480" />
              <mxPoint x="250" y="610" />
              <mxPoint x="641" y="610" />
            </Array>
          </mxGeometry>
        </mxCell>
        <mxCell id="SSB4KYdZMmBcstQJJJUT-5" value="&lt;span style=&quot;font-size:11.0pt;line-height:107%;&lt;br/&gt;font-family:&amp;quot;Calibri&amp;quot;,sans-serif;mso-ascii-theme-font:minor-latin;mso-fareast-font-family:&lt;br/&gt;Calibri;mso-fareast-theme-font:minor-latin;mso-hansi-theme-font:minor-latin;&lt;br/&gt;mso-bidi-font-family:&amp;quot;Times New Roman&amp;quot;;mso-bidi-theme-font:minor-bidi;&lt;br/&gt;mso-ansi-language:RU;mso-fareast-language:EN-US;mso-bidi-language:AR-SA&quot;&gt;q1_0&lt;/span&gt;" style="ellipse;whiteSpace=wrap;html=1;aspect=fixed;" vertex="1" parent="1">
          <mxGeometry x="100" y="440" width="80" height="80" as="geometry" />
        </mxCell>
        <mxCell id="SSB4KYdZMmBcstQJJJUT-61" style="edgeStyle=orthogonalEdgeStyle;rounded=0;orthogonalLoop=1;jettySize=auto;html=1;entryX=0.5;entryY=0;entryDx=0;entryDy=0;" edge="1" parent="1" source="SSB4KYdZMmBcstQJJJUT-6" target="SSB4KYdZMmBcstQJJJUT-15">
          <mxGeometry relative="1" as="geometry" />
        </mxCell>
        <mxCell id="SSB4KYdZMmBcstQJJJUT-64" style="edgeStyle=orthogonalEdgeStyle;rounded=0;orthogonalLoop=1;jettySize=auto;html=1;entryX=0;entryY=0.5;entryDx=0;entryDy=0;" edge="1" parent="1" source="SSB4KYdZMmBcstQJJJUT-6" target="SSB4KYdZMmBcstQJJJUT-12">
          <mxGeometry relative="1" as="geometry" />
        </mxCell>
        <mxCell id="SSB4KYdZMmBcstQJJJUT-6" value="&lt;span style=&quot;font-size:11.0pt;line-height:107%;&lt;br/&gt;font-family:&amp;quot;Calibri&amp;quot;,sans-serif;mso-ascii-theme-font:minor-latin;mso-fareast-font-family:&lt;br/&gt;Calibri;mso-fareast-theme-font:minor-latin;mso-hansi-theme-font:minor-latin;&lt;br/&gt;mso-bidi-font-family:&amp;quot;Times New Roman&amp;quot;;mso-bidi-theme-font:minor-bidi;&lt;br/&gt;mso-ansi-language:RU;mso-fareast-language:EN-US;mso-bidi-language:AR-SA&quot;&gt;q0_1&lt;/span&gt;" style="ellipse;whiteSpace=wrap;html=1;aspect=fixed;" vertex="1" parent="1">
          <mxGeometry x="590" y="430" width="80" height="80" as="geometry" />
        </mxCell>
        <mxCell id="SSB4KYdZMmBcstQJJJUT-8" value="&lt;span style=&quot;font-size:11.0pt;line-height:107%;&lt;br/&gt;font-family:&amp;quot;Calibri&amp;quot;,sans-serif;mso-ascii-theme-font:minor-latin;mso-fareast-font-family:&lt;br/&gt;Calibri;mso-fareast-theme-font:minor-latin;mso-hansi-theme-font:minor-latin;&lt;br/&gt;mso-bidi-font-family:&amp;quot;Times New Roman&amp;quot;;mso-bidi-theme-font:minor-bidi;&lt;br/&gt;mso-ansi-language:RU;mso-fareast-language:EN-US;mso-bidi-language:AR-SA&quot;&gt;q1_2+&lt;/span&gt;" style="ellipse;whiteSpace=wrap;html=1;aspect=fixed;" vertex="1" parent="1">
          <mxGeometry x="900" y="750" width="80" height="80" as="geometry" />
        </mxCell>
        <mxCell id="SSB4KYdZMmBcstQJJJUT-9" value="&lt;span style=&quot;font-size:11.0pt;line-height:107%;&lt;br/&gt;font-family:&amp;quot;Calibri&amp;quot;,sans-serif;mso-ascii-theme-font:minor-latin;mso-fareast-font-family:&lt;br/&gt;Calibri;mso-fareast-theme-font:minor-latin;mso-hansi-theme-font:minor-latin;&lt;br/&gt;mso-bidi-font-family:&amp;quot;Times New Roman&amp;quot;;mso-bidi-theme-font:minor-bidi;&lt;br/&gt;mso-ansi-language:RU;mso-fareast-language:EN-US;mso-bidi-language:AR-SA&quot;&gt;q2+_2+_c&lt;/span&gt;" style="ellipse;whiteSpace=wrap;html=1;aspect=fixed;" vertex="1" parent="1">
          <mxGeometry x="659.75" y="980" width="80" height="80" as="geometry" />
        </mxCell>
        <mxCell id="SSB4KYdZMmBcstQJJJUT-124" style="edgeStyle=orthogonalEdgeStyle;rounded=0;orthogonalLoop=1;jettySize=auto;html=1;entryX=0;entryY=0.5;entryDx=0;entryDy=0;" edge="1" parent="1" source="SSB4KYdZMmBcstQJJJUT-10" target="SSB4KYdZMmBcstQJJJUT-9">
          <mxGeometry relative="1" as="geometry" />
        </mxCell>
        <mxCell id="SSB4KYdZMmBcstQJJJUT-10" value="&lt;span style=&quot;font-size:11.0pt;line-height:107%;&lt;br/&gt;font-family:&amp;quot;Calibri&amp;quot;,sans-serif;mso-ascii-theme-font:minor-latin;mso-fareast-font-family:&lt;br/&gt;Calibri;mso-fareast-theme-font:minor-latin;mso-hansi-theme-font:minor-latin;&lt;br/&gt;mso-bidi-font-family:&amp;quot;Times New Roman&amp;quot;;mso-bidi-theme-font:minor-bidi;&lt;br/&gt;mso-ansi-language:RU;mso-fareast-language:EN-US;mso-bidi-language:AR-SA&quot;&gt;q2+_2+&lt;/span&gt;" style="ellipse;whiteSpace=wrap;html=1;aspect=fixed;" vertex="1" parent="1">
          <mxGeometry x="385" y="980" width="80" height="80" as="geometry" />
        </mxCell>
        <mxCell id="SSB4KYdZMmBcstQJJJUT-119" style="edgeStyle=orthogonalEdgeStyle;rounded=0;orthogonalLoop=1;jettySize=auto;html=1;entryX=1;entryY=0.5;entryDx=0;entryDy=0;" edge="1" parent="1" source="SSB4KYdZMmBcstQJJJUT-11" target="SSB4KYdZMmBcstQJJJUT-1">
          <mxGeometry relative="1" as="geometry">
            <Array as="points">
              <mxPoint x="795" y="620" />
              <mxPoint x="795" y="550" />
              <mxPoint x="520" y="550" />
            </Array>
          </mxGeometry>
        </mxCell>
        <mxCell id="SSB4KYdZMmBcstQJJJUT-11" value="&lt;span style=&quot;font-size:11.0pt;line-height:107%;&lt;br/&gt;font-family:&amp;quot;Calibri&amp;quot;,sans-serif;mso-ascii-theme-font:minor-latin;mso-fareast-font-family:&lt;br/&gt;Calibri;mso-fareast-theme-font:minor-latin;mso-hansi-theme-font:minor-latin;&lt;br/&gt;mso-bidi-font-family:&amp;quot;Times New Roman&amp;quot;;mso-bidi-theme-font:minor-bidi;&lt;br/&gt;mso-ansi-language:RU;mso-fareast-language:EN-US;mso-bidi-language:AR-SA&quot;&gt;q1_2+_c&lt;/span&gt;" style="ellipse;whiteSpace=wrap;html=1;aspect=fixed;" vertex="1" parent="1">
          <mxGeometry x="1070" y="560" width="80" height="80" as="geometry" />
        </mxCell>
        <mxCell id="SSB4KYdZMmBcstQJJJUT-110" style="edgeStyle=orthogonalEdgeStyle;rounded=0;orthogonalLoop=1;jettySize=auto;html=1;entryX=0;entryY=0.5;entryDx=0;entryDy=0;" edge="1" parent="1" source="SSB4KYdZMmBcstQJJJUT-12" target="SSB4KYdZMmBcstQJJJUT-11">
          <mxGeometry relative="1" as="geometry">
            <Array as="points">
              <mxPoint x="955" y="540" />
              <mxPoint x="955" y="600" />
            </Array>
          </mxGeometry>
        </mxCell>
        <mxCell id="SSB4KYdZMmBcstQJJJUT-12" value="&lt;span style=&quot;font-size:11.0pt;line-height:107%;&lt;br/&gt;font-family:&amp;quot;Calibri&amp;quot;,sans-serif;mso-ascii-theme-font:minor-latin;mso-fareast-font-family:&lt;br/&gt;Calibri;mso-fareast-theme-font:minor-latin;mso-hansi-theme-font:minor-latin;&lt;br/&gt;mso-bidi-font-family:&amp;quot;Times New Roman&amp;quot;;mso-bidi-theme-font:minor-bidi;&lt;br/&gt;mso-ansi-language:RU;mso-fareast-language:EN-US;mso-bidi-language:AR-SA&quot;&gt;q0_2+&lt;/span&gt;" style="ellipse;whiteSpace=wrap;html=1;aspect=fixed;" vertex="1" parent="1">
          <mxGeometry x="760" y="470" width="80" height="80" as="geometry" />
        </mxCell>
        <mxCell id="SSB4KYdZMmBcstQJJJUT-99" style="edgeStyle=orthogonalEdgeStyle;rounded=0;orthogonalLoop=1;jettySize=auto;html=1;entryX=1;entryY=1;entryDx=0;entryDy=0;" edge="1" parent="1" source="SSB4KYdZMmBcstQJJJUT-13" target="SSB4KYdZMmBcstQJJJUT-14">
          <mxGeometry relative="1" as="geometry">
            <Array as="points">
              <mxPoint x="630" y="860" />
              <mxPoint x="630" y="858" />
            </Array>
          </mxGeometry>
        </mxCell>
        <mxCell id="SSB4KYdZMmBcstQJJJUT-102" style="edgeStyle=orthogonalEdgeStyle;rounded=0;orthogonalLoop=1;jettySize=auto;html=1;entryX=1;entryY=1;entryDx=0;entryDy=0;" edge="1" parent="1" source="SSB4KYdZMmBcstQJJJUT-13" target="SSB4KYdZMmBcstQJJJUT-1">
          <mxGeometry relative="1" as="geometry">
            <Array as="points">
              <mxPoint x="710" y="780" />
              <mxPoint x="520" y="780" />
              <mxPoint x="520" y="588" />
            </Array>
          </mxGeometry>
        </mxCell>
        <mxCell id="SSB4KYdZMmBcstQJJJUT-104" style="edgeStyle=orthogonalEdgeStyle;rounded=0;orthogonalLoop=1;jettySize=auto;html=1;entryX=1;entryY=0.625;entryDx=0;entryDy=0;entryPerimeter=0;exitX=0.929;exitY=0.236;exitDx=0;exitDy=0;exitPerimeter=0;" edge="1" parent="1" source="SSB4KYdZMmBcstQJJJUT-13" target="SSB4KYdZMmBcstQJJJUT-13">
          <mxGeometry relative="1" as="geometry">
            <mxPoint x="760" y="840" as="targetPoint" />
            <Array as="points">
              <mxPoint x="760" y="809" />
              <mxPoint x="760" y="840" />
            </Array>
          </mxGeometry>
        </mxCell>
        <mxCell id="SSB4KYdZMmBcstQJJJUT-13" value="&lt;span style=&quot;font-size:11.0pt;line-height:107%;&lt;br/&gt;font-family:&amp;quot;Calibri&amp;quot;,sans-serif;mso-ascii-theme-font:minor-latin;mso-fareast-font-family:&lt;br/&gt;Calibri;mso-fareast-theme-font:minor-latin;mso-hansi-theme-font:minor-latin;&lt;br/&gt;mso-bidi-font-family:&amp;quot;Times New Roman&amp;quot;;mso-bidi-theme-font:minor-bidi;&lt;br/&gt;mso-ansi-language:RU;mso-fareast-language:EN-US;mso-bidi-language:AR-SA&quot;&gt;q2+_1_c&lt;/span&gt;" style="ellipse;whiteSpace=wrap;html=1;aspect=fixed;" vertex="1" parent="1">
          <mxGeometry x="670" y="790" width="80" height="80" as="geometry" />
        </mxCell>
        <mxCell id="SSB4KYdZMmBcstQJJJUT-95" style="edgeStyle=orthogonalEdgeStyle;rounded=0;orthogonalLoop=1;jettySize=auto;html=1;entryX=0;entryY=0.5;entryDx=0;entryDy=0;" edge="1" parent="1" source="SSB4KYdZMmBcstQJJJUT-14" target="SSB4KYdZMmBcstQJJJUT-13">
          <mxGeometry relative="1" as="geometry" />
        </mxCell>
        <mxCell id="SSB4KYdZMmBcstQJJJUT-97" style="edgeStyle=orthogonalEdgeStyle;rounded=0;orthogonalLoop=1;jettySize=auto;html=1;entryX=0.5;entryY=0;entryDx=0;entryDy=0;" edge="1" parent="1" source="SSB4KYdZMmBcstQJJJUT-14" target="SSB4KYdZMmBcstQJJJUT-10">
          <mxGeometry relative="1" as="geometry">
            <Array as="points">
              <mxPoint x="425" y="860" />
            </Array>
          </mxGeometry>
        </mxCell>
        <mxCell id="SSB4KYdZMmBcstQJJJUT-14" value="&lt;span style=&quot;font-size:11.0pt;line-height:107%;&lt;br/&gt;font-family:&amp;quot;Calibri&amp;quot;,sans-serif;mso-ascii-theme-font:minor-latin;mso-fareast-font-family:&lt;br/&gt;Calibri;mso-fareast-theme-font:minor-latin;mso-hansi-theme-font:minor-latin;&lt;br/&gt;mso-bidi-font-family:&amp;quot;Times New Roman&amp;quot;;mso-bidi-theme-font:minor-bidi;&lt;br/&gt;mso-ansi-language:RU;mso-fareast-language:EN-US;mso-bidi-language:AR-SA&quot;&gt;q2+_1&lt;/span&gt;" style="ellipse;whiteSpace=wrap;html=1;aspect=fixed;" vertex="1" parent="1">
          <mxGeometry x="510" y="790" width="80" height="80" as="geometry" />
        </mxCell>
        <mxCell id="SSB4KYdZMmBcstQJJJUT-76" style="edgeStyle=orthogonalEdgeStyle;rounded=0;orthogonalLoop=1;jettySize=auto;html=1;entryX=0.5;entryY=0;entryDx=0;entryDy=0;exitX=1;exitY=1;exitDx=0;exitDy=0;" edge="1" parent="1" source="SSB4KYdZMmBcstQJJJUT-16" target="SSB4KYdZMmBcstQJJJUT-13">
          <mxGeometry relative="1" as="geometry" />
        </mxCell>
        <mxCell id="SSB4KYdZMmBcstQJJJUT-81" style="edgeStyle=orthogonalEdgeStyle;rounded=0;orthogonalLoop=1;jettySize=auto;html=1;entryX=0;entryY=0.5;entryDx=0;entryDy=0;exitX=0.988;exitY=0.663;exitDx=0;exitDy=0;exitPerimeter=0;" edge="1" parent="1" source="SSB4KYdZMmBcstQJJJUT-16" target="SSB4KYdZMmBcstQJJJUT-8">
          <mxGeometry relative="1" as="geometry">
            <Array as="points">
              <mxPoint x="719" y="720" />
              <mxPoint x="900" y="720" />
            </Array>
          </mxGeometry>
        </mxCell>
        <mxCell id="SSB4KYdZMmBcstQJJJUT-89" style="edgeStyle=orthogonalEdgeStyle;rounded=0;orthogonalLoop=1;jettySize=auto;html=1;entryX=0;entryY=0;entryDx=0;entryDy=0;" edge="1" parent="1" source="SSB4KYdZMmBcstQJJJUT-15" target="SSB4KYdZMmBcstQJJJUT-8">
          <mxGeometry relative="1" as="geometry">
            <Array as="points">
              <mxPoint x="912" y="740" />
            </Array>
          </mxGeometry>
        </mxCell>
        <mxCell id="SSB4KYdZMmBcstQJJJUT-15" value="&lt;span style=&quot;font-size:11.0pt;line-height:107%;&lt;br/&gt;font-family:&amp;quot;Calibri&amp;quot;,sans-serif;mso-ascii-theme-font:minor-latin;mso-fareast-font-family:&lt;br/&gt;Calibri;mso-fareast-theme-font:minor-latin;mso-hansi-theme-font:minor-latin;&lt;br/&gt;mso-bidi-font-family:&amp;quot;Times New Roman&amp;quot;;mso-bidi-theme-font:minor-bidi;&lt;br/&gt;mso-ansi-language:RU;mso-fareast-language:EN-US;mso-bidi-language:AR-SA&quot;&gt;q1_1_c&lt;/span&gt;" style="ellipse;whiteSpace=wrap;html=1;aspect=fixed;" vertex="1" parent="1">
          <mxGeometry x="549.5" y="660" width="80" height="80" as="geometry" />
        </mxCell>
        <mxCell id="SSB4KYdZMmBcstQJJJUT-16" value="&lt;span style=&quot;font-size:11.0pt;line-height:107%;&lt;br/&gt;font-family:&amp;quot;Calibri&amp;quot;,sans-serif;mso-ascii-theme-font:minor-latin;mso-fareast-font-family:&lt;br/&gt;Calibri;mso-fareast-theme-font:minor-latin;mso-hansi-theme-font:minor-latin;&lt;br/&gt;mso-bidi-font-family:&amp;quot;Times New Roman&amp;quot;;mso-bidi-theme-font:minor-bidi;&lt;br/&gt;mso-ansi-language:RU;mso-fareast-language:EN-US;mso-bidi-language:AR-SA&quot;&gt;q1_1&lt;/span&gt;" style="ellipse;whiteSpace=wrap;html=1;aspect=fixed;" vertex="1" parent="1">
          <mxGeometry x="640" y="560" width="80" height="80" as="geometry" />
        </mxCell>
        <mxCell id="SSB4KYdZMmBcstQJJJUT-31" style="edgeStyle=orthogonalEdgeStyle;rounded=0;orthogonalLoop=1;jettySize=auto;html=1;entryX=0.5;entryY=0;entryDx=0;entryDy=0;" edge="1" parent="1" source="SSB4KYdZMmBcstQJJJUT-17" target="SSB4KYdZMmBcstQJJJUT-1">
          <mxGeometry relative="1" as="geometry" />
        </mxCell>
        <mxCell id="SSB4KYdZMmBcstQJJJUT-32" style="edgeStyle=orthogonalEdgeStyle;rounded=0;orthogonalLoop=1;jettySize=auto;html=1;entryX=0.5;entryY=0;entryDx=0;entryDy=0;" edge="1" parent="1" source="SSB4KYdZMmBcstQJJJUT-17" target="SSB4KYdZMmBcstQJJJUT-3">
          <mxGeometry relative="1" as="geometry" />
        </mxCell>
        <mxCell id="SSB4KYdZMmBcstQJJJUT-34" style="edgeStyle=orthogonalEdgeStyle;rounded=0;orthogonalLoop=1;jettySize=auto;html=1;exitX=1;exitY=1;exitDx=0;exitDy=0;" edge="1" parent="1" source="SSB4KYdZMmBcstQJJJUT-17">
          <mxGeometry relative="1" as="geometry">
            <mxPoint x="650" y="630" as="targetPoint" />
            <Array as="points">
              <mxPoint x="400" y="488" />
              <mxPoint x="400" y="630" />
            </Array>
          </mxGeometry>
        </mxCell>
        <mxCell id="SSB4KYdZMmBcstQJJJUT-17" value="&lt;span style=&quot;font-size: 14.6667px;&quot;&gt;q1_0_c&lt;/span&gt;" style="ellipse;whiteSpace=wrap;html=1;aspect=fixed;" vertex="1" parent="1">
          <mxGeometry x="280" y="420" width="80" height="80" as="geometry" />
        </mxCell>
        <mxCell id="SSB4KYdZMmBcstQJJJUT-22" style="edgeStyle=orthogonalEdgeStyle;rounded=0;orthogonalLoop=1;jettySize=auto;html=1;entryX=0.5;entryY=0;entryDx=0;entryDy=0;" edge="1" parent="1" source="SSB4KYdZMmBcstQJJJUT-18" target="SSB4KYdZMmBcstQJJJUT-17">
          <mxGeometry relative="1" as="geometry" />
        </mxCell>
        <mxCell id="SSB4KYdZMmBcstQJJJUT-18" value="&lt;span style=&quot;font-size:11.0pt;line-height:107%;&lt;br/&gt;font-family:&amp;quot;Calibri&amp;quot;,sans-serif;mso-ascii-theme-font:minor-latin;mso-fareast-font-family:&lt;br/&gt;Calibri;mso-fareast-theme-font:minor-latin;mso-hansi-theme-font:minor-latin;&lt;br/&gt;mso-bidi-font-family:&amp;quot;Times New Roman&amp;quot;;mso-bidi-theme-font:minor-bidi;&lt;br/&gt;mso-ansi-language:RU;mso-fareast-language:EN-US;mso-bidi-language:AR-SA&quot;&gt;q0_0&lt;/span&gt;" style="ellipse;whiteSpace=wrap;html=1;aspect=fixed;" vertex="1" parent="1">
          <mxGeometry x="460" y="310" width="80" height="80" as="geometry" />
        </mxCell>
        <mxCell id="SSB4KYdZMmBcstQJJJUT-20" style="edgeStyle=orthogonalEdgeStyle;rounded=0;orthogonalLoop=1;jettySize=auto;html=1;entryX=1;entryY=0.5;entryDx=0;entryDy=0;" edge="1" parent="1" source="SSB4KYdZMmBcstQJJJUT-18" target="SSB4KYdZMmBcstQJJJUT-18">
          <mxGeometry relative="1" as="geometry" />
        </mxCell>
        <mxCell id="SSB4KYdZMmBcstQJJJUT-21" value="&lt;b style=&quot;mso-bidi-font-weight:normal&quot;&gt;&lt;span style=&quot;font-size:11.0pt;line-height:107%;font-family:&amp;quot;Calibri&amp;quot;,sans-serif;&lt;br/&gt;mso-ascii-theme-font:minor-latin;mso-fareast-font-family:Calibri;mso-fareast-theme-font:&lt;br/&gt;minor-latin;mso-hansi-theme-font:minor-latin;mso-bidi-font-family:&amp;quot;Times New Roman&amp;quot;;&lt;br/&gt;mso-bidi-theme-font:minor-bidi;mso-ansi-language:RU;mso-fareast-language:EN-US;&lt;br/&gt;mso-bidi-language:AR-SA&quot;&gt;a, b&lt;/span&gt;&lt;/b&gt;" style="text;whiteSpace=wrap;html=1;" vertex="1" parent="1">
          <mxGeometry x="500" y="250" width="40" height="40" as="geometry" />
        </mxCell>
        <mxCell id="SSB4KYdZMmBcstQJJJUT-23" value="&lt;b style=&quot;mso-bidi-font-weight:normal&quot;&gt;&lt;span style=&quot;font-size:11.0pt;line-height:107%;font-family:&amp;quot;Calibri&amp;quot;,sans-serif;&lt;br/&gt;mso-ascii-theme-font:minor-latin;mso-fareast-font-family:Calibri;mso-fareast-theme-font:&lt;br/&gt;minor-latin;mso-hansi-theme-font:minor-latin;mso-bidi-font-family:&amp;quot;Times New Roman&amp;quot;;&lt;br/&gt;mso-bidi-theme-font:minor-bidi;mso-ansi-language:RU;mso-fareast-language:EN-US;&lt;br/&gt;mso-bidi-language:AR-SA&quot;&gt;c&lt;/span&gt;&lt;/b&gt;" style="text;whiteSpace=wrap;html=1;" vertex="1" parent="1">
          <mxGeometry x="405" y="300" width="40" height="40" as="geometry" />
        </mxCell>
        <mxCell id="SSB4KYdZMmBcstQJJJUT-24" value="&lt;b style=&quot;mso-bidi-font-weight:normal&quot;&gt;&lt;span style=&quot;font-size:11.0pt;line-height:107%;font-family:&amp;quot;Calibri&amp;quot;,sans-serif;&lt;br/&gt;mso-ascii-theme-font:minor-latin;mso-fareast-font-family:Calibri;mso-fareast-theme-font:&lt;br/&gt;minor-latin;mso-hansi-theme-font:minor-latin;mso-bidi-font-family:&amp;quot;Times New Roman&amp;quot;;&lt;br/&gt;mso-bidi-theme-font:minor-bidi;mso-ansi-language:RU;mso-fareast-language:EN-US;&lt;br/&gt;mso-bidi-language:AR-SA&quot;&gt;d&lt;/span&gt;&lt;/b&gt;" style="text;whiteSpace=wrap;html=1;" vertex="1" parent="1">
          <mxGeometry x="510" y="400" width="40" height="40" as="geometry" />
        </mxCell>
        <mxCell id="SSB4KYdZMmBcstQJJJUT-27" style="edgeStyle=orthogonalEdgeStyle;rounded=0;orthogonalLoop=1;jettySize=auto;html=1;entryX=0;entryY=0.625;entryDx=0;entryDy=0;entryPerimeter=0;" edge="1" parent="1" source="SSB4KYdZMmBcstQJJJUT-18" target="SSB4KYdZMmBcstQJJJUT-6">
          <mxGeometry relative="1" as="geometry">
            <Array as="points">
              <mxPoint x="500" y="480" />
            </Array>
          </mxGeometry>
        </mxCell>
        <mxCell id="SSB4KYdZMmBcstQJJJUT-28" style="edgeStyle=orthogonalEdgeStyle;rounded=0;orthogonalLoop=1;jettySize=auto;html=1;entryX=1.038;entryY=0.425;entryDx=0;entryDy=0;entryPerimeter=0;" edge="1" parent="1" source="SSB4KYdZMmBcstQJJJUT-17" target="SSB4KYdZMmBcstQJJJUT-5">
          <mxGeometry relative="1" as="geometry" />
        </mxCell>
        <mxCell id="SSB4KYdZMmBcstQJJJUT-29" value="&lt;b style=&quot;mso-bidi-font-weight:normal&quot;&gt;&lt;span style=&quot;font-size:11.0pt;line-height:107%;font-family:&amp;quot;Calibri&amp;quot;,sans-serif;&lt;br/&gt;mso-ascii-theme-font:minor-latin;mso-fareast-font-family:Calibri;mso-fareast-theme-font:&lt;br/&gt;minor-latin;mso-hansi-theme-font:minor-latin;mso-bidi-font-family:&amp;quot;Times New Roman&amp;quot;;&lt;br/&gt;mso-bidi-theme-font:minor-bidi;mso-ansi-language:RU;mso-fareast-language:EN-US;&lt;br/&gt;mso-bidi-language:AR-SA&quot;&gt;a&lt;/span&gt;&lt;/b&gt;" style="text;whiteSpace=wrap;html=1;" vertex="1" parent="1">
          <mxGeometry x="220" y="410" width="40" height="40" as="geometry" />
        </mxCell>
        <mxCell id="SSB4KYdZMmBcstQJJJUT-30" value="&lt;b style=&quot;mso-bidi-font-weight:normal&quot;&gt;&lt;span style=&quot;font-size:11.0pt;line-height:107%;font-family:&amp;quot;Calibri&amp;quot;,sans-serif;&lt;br/&gt;mso-ascii-theme-font:minor-latin;mso-fareast-font-family:Calibri;mso-fareast-theme-font:&lt;br/&gt;minor-latin;mso-hansi-theme-font:minor-latin;mso-bidi-font-family:&amp;quot;Times New Roman&amp;quot;;&lt;br/&gt;mso-bidi-theme-font:minor-bidi;mso-ansi-language:RU;mso-fareast-language:EN-US;&lt;br/&gt;mso-bidi-language:AR-SA&quot;&gt;b&lt;/span&gt;&lt;/b&gt;" style="text;whiteSpace=wrap;html=1;" vertex="1" parent="1">
          <mxGeometry x="385" y="430" width="40" height="40" as="geometry" />
        </mxCell>
        <mxCell id="SSB4KYdZMmBcstQJJJUT-33" value="&lt;b style=&quot;mso-bidi-font-weight:normal&quot;&gt;&lt;span style=&quot;font-size:11.0pt;line-height:107%;font-family:&amp;quot;Calibri&amp;quot;,sans-serif;&lt;br/&gt;mso-ascii-theme-font:minor-latin;mso-fareast-font-family:Calibri;mso-fareast-theme-font:&lt;br/&gt;minor-latin;mso-hansi-theme-font:minor-latin;mso-bidi-font-family:&amp;quot;Times New Roman&amp;quot;;&lt;br/&gt;mso-bidi-theme-font:minor-bidi;mso-ansi-language:RU;mso-fareast-language:EN-US;&lt;br/&gt;mso-bidi-language:AR-SA&quot;&gt;c&lt;/span&gt;&lt;/b&gt;" style="text;whiteSpace=wrap;html=1;" vertex="1" parent="1">
          <mxGeometry x="340" y="540" width="40" height="40" as="geometry" />
        </mxCell>
        <mxCell id="SSB4KYdZMmBcstQJJJUT-35" value="&lt;b style=&quot;mso-bidi-font-weight:normal&quot;&gt;&lt;span style=&quot;font-size:11.0pt;line-height:107%;font-family:&amp;quot;Calibri&amp;quot;,sans-serif;&lt;br/&gt;mso-ascii-theme-font:minor-latin;mso-fareast-font-family:Calibri;mso-fareast-theme-font:&lt;br/&gt;minor-latin;mso-hansi-theme-font:minor-latin;mso-bidi-font-family:&amp;quot;Times New Roman&amp;quot;;&lt;br/&gt;mso-bidi-theme-font:minor-bidi;mso-ansi-language:RU;mso-fareast-language:EN-US;&lt;br/&gt;mso-bidi-language:AR-SA&quot;&gt;d&lt;/span&gt;&lt;/b&gt;" style="text;whiteSpace=wrap;html=1;" vertex="1" parent="1">
          <mxGeometry x="380" y="500" width="40" height="40" as="geometry" />
        </mxCell>
        <mxCell id="SSB4KYdZMmBcstQJJJUT-37" style="edgeStyle=orthogonalEdgeStyle;rounded=0;orthogonalLoop=1;jettySize=auto;html=1;entryX=1;entryY=0.5;entryDx=0;entryDy=0;exitX=0.5;exitY=0;exitDx=0;exitDy=0;" edge="1" parent="1" source="SSB4KYdZMmBcstQJJJUT-5">
          <mxGeometry relative="1" as="geometry">
            <mxPoint x="139.47000000000003" y="420" as="sourcePoint" />
            <mxPoint x="179.47000000000003" y="460" as="targetPoint" />
          </mxGeometry>
        </mxCell>
        <mxCell id="SSB4KYdZMmBcstQJJJUT-38" value="&lt;b style=&quot;mso-bidi-font-weight:normal&quot;&gt;&lt;span style=&quot;font-size:11.0pt;line-height:107%;font-family:&amp;quot;Calibri&amp;quot;,sans-serif;&lt;br/&gt;mso-ascii-theme-font:minor-latin;mso-fareast-font-family:Calibri;mso-fareast-theme-font:&lt;br/&gt;minor-latin;mso-hansi-theme-font:minor-latin;mso-bidi-font-family:&amp;quot;Times New Roman&amp;quot;;&lt;br/&gt;mso-bidi-theme-font:minor-bidi;mso-ansi-language:RU;mso-fareast-language:EN-US;&lt;br/&gt;mso-bidi-language:AR-SA&quot;&gt;a, b&lt;/span&gt;&lt;/b&gt;" style="text;whiteSpace=wrap;html=1;" vertex="1" parent="1">
          <mxGeometry x="140.00000000000003" y="380" width="40" height="40" as="geometry" />
        </mxCell>
        <mxCell id="SSB4KYdZMmBcstQJJJUT-39" value="&lt;b style=&quot;mso-bidi-font-weight:normal&quot;&gt;&lt;span style=&quot;font-size:11.0pt;line-height:107%;font-family:&amp;quot;Calibri&amp;quot;,sans-serif;&lt;br/&gt;mso-ascii-theme-font:minor-latin;mso-fareast-font-family:Calibri;mso-fareast-theme-font:&lt;br/&gt;minor-latin;mso-hansi-theme-font:minor-latin;mso-bidi-font-family:&amp;quot;Times New Roman&amp;quot;;&lt;br/&gt;mso-bidi-theme-font:minor-bidi;mso-ansi-language:RU;mso-fareast-language:EN-US;&lt;br/&gt;mso-bidi-language:AR-SA&quot;&gt;c&lt;/span&gt;&lt;/b&gt;" style="text;whiteSpace=wrap;html=1;" vertex="1" parent="1">
          <mxGeometry x="180" y="490" width="40" height="40" as="geometry" />
        </mxCell>
        <mxCell id="SSB4KYdZMmBcstQJJJUT-42" value="&lt;b style=&quot;mso-bidi-font-weight:normal&quot;&gt;&lt;span style=&quot;font-size:11.0pt;line-height:107%;font-family:&amp;quot;Calibri&amp;quot;,sans-serif;&lt;br/&gt;mso-ascii-theme-font:minor-latin;mso-fareast-font-family:Calibri;mso-fareast-theme-font:&lt;br/&gt;minor-latin;mso-hansi-theme-font:minor-latin;mso-bidi-font-family:&amp;quot;Times New Roman&amp;quot;;&lt;br/&gt;mso-bidi-theme-font:minor-bidi;mso-ansi-language:RU;mso-fareast-language:EN-US;&lt;br/&gt;mso-bidi-language:AR-SA&quot;&gt;d&lt;/span&gt;&lt;/b&gt;" style="text;whiteSpace=wrap;html=1;" vertex="1" parent="1">
          <mxGeometry x="250" y="530" width="40" height="40" as="geometry" />
        </mxCell>
        <mxCell id="SSB4KYdZMmBcstQJJJUT-43" style="edgeStyle=orthogonalEdgeStyle;rounded=0;orthogonalLoop=1;jettySize=auto;html=1;entryX=1;entryY=0.5;entryDx=0;entryDy=0;exitX=0.5;exitY=0;exitDx=0;exitDy=0;" edge="1" parent="1">
          <mxGeometry relative="1" as="geometry">
            <mxPoint x="200" y="700" as="sourcePoint" />
            <mxPoint x="239.47000000000003" y="720" as="targetPoint" />
          </mxGeometry>
        </mxCell>
        <mxCell id="SSB4KYdZMmBcstQJJJUT-44" value="&lt;b style=&quot;mso-bidi-font-weight:normal&quot;&gt;&lt;span style=&quot;font-size:11.0pt;line-height:107%;font-family:&amp;quot;Calibri&amp;quot;,sans-serif;&lt;br/&gt;mso-ascii-theme-font:minor-latin;mso-fareast-font-family:Calibri;mso-fareast-theme-font:&lt;br/&gt;minor-latin;mso-hansi-theme-font:minor-latin;mso-bidi-font-family:&amp;quot;Times New Roman&amp;quot;;&lt;br/&gt;mso-bidi-theme-font:minor-bidi;mso-ansi-language:RU;mso-fareast-language:EN-US;&lt;br/&gt;mso-bidi-language:AR-SA&quot;&gt;a, b&lt;/span&gt;&lt;/b&gt;" style="text;whiteSpace=wrap;html=1;" vertex="1" parent="1">
          <mxGeometry x="180.00000000000003" y="670" width="40" height="40" as="geometry" />
        </mxCell>
        <mxCell id="SSB4KYdZMmBcstQJJJUT-46" value="&lt;b style=&quot;mso-bidi-font-weight:normal&quot;&gt;&lt;span style=&quot;font-size:11.0pt;line-height:107%;font-family:&amp;quot;Calibri&amp;quot;,sans-serif;&lt;br/&gt;mso-ascii-theme-font:minor-latin;mso-fareast-font-family:Calibri;mso-fareast-theme-font:&lt;br/&gt;minor-latin;mso-hansi-theme-font:minor-latin;mso-bidi-font-family:&amp;quot;Times New Roman&amp;quot;;&lt;br/&gt;mso-bidi-theme-font:minor-bidi;mso-ansi-language:RU;mso-fareast-language:EN-US;&lt;br/&gt;mso-bidi-language:AR-SA&quot;&gt;c&lt;/span&gt;&lt;/b&gt;" style="text;whiteSpace=wrap;html=1;" vertex="1" parent="1">
          <mxGeometry x="250" y="740" width="40" height="40" as="geometry" />
        </mxCell>
        <mxCell id="SSB4KYdZMmBcstQJJJUT-47" style="edgeStyle=orthogonalEdgeStyle;rounded=0;orthogonalLoop=1;jettySize=auto;html=1;entryX=-0.006;entryY=0.609;entryDx=0;entryDy=0;entryPerimeter=0;" edge="1" parent="1" source="SSB4KYdZMmBcstQJJJUT-4" target="SSB4KYdZMmBcstQJJJUT-14">
          <mxGeometry relative="1" as="geometry" />
        </mxCell>
        <mxCell id="SSB4KYdZMmBcstQJJJUT-48" value="&lt;b style=&quot;mso-bidi-font-weight:normal&quot;&gt;&lt;span style=&quot;font-size:11.0pt;line-height:107%;font-family:&amp;quot;Calibri&amp;quot;,sans-serif;&lt;br/&gt;mso-ascii-theme-font:minor-latin;mso-fareast-font-family:Calibri;mso-fareast-theme-font:&lt;br/&gt;minor-latin;mso-hansi-theme-font:minor-latin;mso-bidi-font-family:&amp;quot;Times New Roman&amp;quot;;&lt;br/&gt;mso-bidi-theme-font:minor-bidi;mso-ansi-language:RU;mso-fareast-language:EN-US;&lt;br/&gt;mso-bidi-language:AR-SA&quot;&gt;d&lt;/span&gt;&lt;/b&gt;" style="text;whiteSpace=wrap;html=1;" vertex="1" parent="1">
          <mxGeometry x="345" y="780" width="40" height="40" as="geometry" />
        </mxCell>
        <mxCell id="SSB4KYdZMmBcstQJJJUT-50" value="&lt;b style=&quot;mso-bidi-font-weight:normal&quot;&gt;&lt;span style=&quot;font-size:11.0pt;line-height:107%;font-family:&amp;quot;Calibri&amp;quot;,sans-serif;&lt;br/&gt;mso-ascii-theme-font:minor-latin;mso-fareast-font-family:Calibri;mso-fareast-theme-font:&lt;br/&gt;minor-latin;mso-hansi-theme-font:minor-latin;mso-bidi-font-family:&amp;quot;Times New Roman&amp;quot;;&lt;br/&gt;mso-bidi-theme-font:minor-bidi;mso-ansi-language:RU;mso-fareast-language:EN-US;&lt;br/&gt;mso-bidi-language:AR-SA&quot;&gt;b&lt;/span&gt;&lt;/b&gt;" style="text;whiteSpace=wrap;html=1;" vertex="1" parent="1">
          <mxGeometry x="400" y="650" width="40" height="40" as="geometry" />
        </mxCell>
        <mxCell id="SSB4KYdZMmBcstQJJJUT-51" value="&lt;b style=&quot;mso-bidi-font-weight:normal&quot;&gt;&lt;span style=&quot;font-size:11.0pt;line-height:107%;font-family:&amp;quot;Calibri&amp;quot;,sans-serif;&lt;br/&gt;mso-ascii-theme-font:minor-latin;mso-fareast-font-family:Calibri;mso-fareast-theme-font:&lt;br/&gt;minor-latin;mso-hansi-theme-font:minor-latin;mso-bidi-font-family:&amp;quot;Times New Roman&amp;quot;;&lt;br/&gt;mso-bidi-theme-font:minor-bidi;mso-ansi-language:RU;mso-fareast-language:EN-US;&lt;br/&gt;mso-bidi-language:AR-SA&quot;&gt;a&lt;/span&gt;&lt;/b&gt;" style="text;whiteSpace=wrap;html=1;" vertex="1" parent="1">
          <mxGeometry x="270" y="660" width="40" height="40" as="geometry" />
        </mxCell>
        <mxCell id="SSB4KYdZMmBcstQJJJUT-52" style="edgeStyle=orthogonalEdgeStyle;rounded=0;orthogonalLoop=1;jettySize=auto;html=1;entryX=0.947;entryY=0.297;entryDx=0;entryDy=0;entryPerimeter=0;" edge="1" parent="1" source="SSB4KYdZMmBcstQJJJUT-3" target="SSB4KYdZMmBcstQJJJUT-4">
          <mxGeometry relative="1" as="geometry">
            <Array as="points">
              <mxPoint x="236" y="680" />
            </Array>
          </mxGeometry>
        </mxCell>
        <mxCell id="SSB4KYdZMmBcstQJJJUT-56" value="&lt;b style=&quot;mso-bidi-font-weight:normal&quot;&gt;&lt;span style=&quot;font-size:11.0pt;line-height:107%;font-family:&amp;quot;Calibri&amp;quot;,sans-serif;&lt;br/&gt;mso-ascii-theme-font:minor-latin;mso-fareast-font-family:Calibri;mso-fareast-theme-font:&lt;br/&gt;minor-latin;mso-hansi-theme-font:minor-latin;mso-bidi-font-family:&amp;quot;Times New Roman&amp;quot;;&lt;br/&gt;mso-bidi-theme-font:minor-bidi;mso-ansi-language:RU;mso-fareast-language:EN-US;&lt;br/&gt;mso-bidi-language:AR-SA&quot;&gt;c&lt;/span&gt;&lt;/b&gt;" style="text;whiteSpace=wrap;html=1;" vertex="1" parent="1">
          <mxGeometry x="370" y="680" width="40" height="40" as="geometry" />
        </mxCell>
        <mxCell id="SSB4KYdZMmBcstQJJJUT-57" style="edgeStyle=orthogonalEdgeStyle;rounded=0;orthogonalLoop=1;jettySize=auto;html=1;entryX=0.025;entryY=0.35;entryDx=0;entryDy=0;entryPerimeter=0;" edge="1" parent="1" source="SSB4KYdZMmBcstQJJJUT-3" target="SSB4KYdZMmBcstQJJJUT-14">
          <mxGeometry relative="1" as="geometry">
            <Array as="points">
              <mxPoint x="512" y="670" />
            </Array>
          </mxGeometry>
        </mxCell>
        <mxCell id="SSB4KYdZMmBcstQJJJUT-58" value="&lt;b style=&quot;mso-bidi-font-weight:normal&quot;&gt;&lt;span style=&quot;font-size:11.0pt;line-height:107%;font-family:&amp;quot;Calibri&amp;quot;,sans-serif;&lt;br/&gt;mso-ascii-theme-font:minor-latin;mso-fareast-font-family:Calibri;mso-fareast-theme-font:&lt;br/&gt;minor-latin;mso-hansi-theme-font:minor-latin;mso-bidi-font-family:&amp;quot;Times New Roman&amp;quot;;&lt;br/&gt;mso-bidi-theme-font:minor-bidi;mso-ansi-language:RU;mso-fareast-language:EN-US;&lt;br/&gt;mso-bidi-language:AR-SA&quot;&gt;d&lt;/span&gt;&lt;/b&gt;" style="text;whiteSpace=wrap;html=1;" vertex="1" parent="1">
          <mxGeometry x="420" y="680" width="40" height="40" as="geometry" />
        </mxCell>
        <mxCell id="SSB4KYdZMmBcstQJJJUT-59" style="edgeStyle=orthogonalEdgeStyle;rounded=0;orthogonalLoop=1;jettySize=auto;html=1;entryX=1;entryY=0.5;entryDx=0;entryDy=0;" edge="1" parent="1">
          <mxGeometry relative="1" as="geometry">
            <mxPoint x="629.5" y="430" as="sourcePoint" />
            <mxPoint x="669.5" y="470" as="targetPoint" />
          </mxGeometry>
        </mxCell>
        <mxCell id="SSB4KYdZMmBcstQJJJUT-60" value="&lt;b style=&quot;mso-bidi-font-weight:normal&quot;&gt;&lt;span style=&quot;font-size:11.0pt;line-height:107%;font-family:&amp;quot;Calibri&amp;quot;,sans-serif;&lt;br/&gt;mso-ascii-theme-font:minor-latin;mso-fareast-font-family:Calibri;mso-fareast-theme-font:&lt;br/&gt;minor-latin;mso-hansi-theme-font:minor-latin;mso-bidi-font-family:&amp;quot;Times New Roman&amp;quot;;&lt;br/&gt;mso-bidi-theme-font:minor-bidi;mso-ansi-language:RU;mso-fareast-language:EN-US;&lt;br/&gt;mso-bidi-language:AR-SA&quot;&gt;a, b&lt;/span&gt;&lt;/b&gt;" style="text;whiteSpace=wrap;html=1;" vertex="1" parent="1">
          <mxGeometry x="629.5" y="370" width="40" height="40" as="geometry" />
        </mxCell>
        <mxCell id="SSB4KYdZMmBcstQJJJUT-62" value="&lt;b style=&quot;mso-bidi-font-weight:normal&quot;&gt;&lt;span style=&quot;font-size:11.0pt;line-height:107%;font-family:&amp;quot;Calibri&amp;quot;,sans-serif;&lt;br/&gt;mso-ascii-theme-font:minor-latin;mso-fareast-font-family:Calibri;mso-fareast-theme-font:&lt;br/&gt;minor-latin;mso-hansi-theme-font:minor-latin;mso-bidi-font-family:&amp;quot;Times New Roman&amp;quot;;&lt;br/&gt;mso-bidi-theme-font:minor-bidi;mso-ansi-language:RU;mso-fareast-language:EN-US;&lt;br/&gt;mso-bidi-language:AR-SA&quot;&gt;c&lt;/span&gt;&lt;/b&gt;" style="text;whiteSpace=wrap;html=1;" vertex="1" parent="1">
          <mxGeometry x="630" y="510" width="40" height="40" as="geometry" />
        </mxCell>
        <mxCell id="SSB4KYdZMmBcstQJJJUT-65" value="&lt;b style=&quot;mso-bidi-font-weight:normal&quot;&gt;&lt;span style=&quot;font-size:11.0pt;line-height:107%;font-family:&amp;quot;Calibri&amp;quot;,sans-serif;&lt;br/&gt;mso-ascii-theme-font:minor-latin;mso-fareast-font-family:Calibri;mso-fareast-theme-font:&lt;br/&gt;minor-latin;mso-hansi-theme-font:minor-latin;mso-bidi-font-family:&amp;quot;Times New Roman&amp;quot;;&lt;br/&gt;mso-bidi-theme-font:minor-bidi;mso-ansi-language:RU;mso-fareast-language:EN-US;&lt;br/&gt;mso-bidi-language:AR-SA&quot;&gt;d&lt;/span&gt;&lt;/b&gt;" style="text;whiteSpace=wrap;html=1;" vertex="1" parent="1">
          <mxGeometry x="710" y="430" width="40" height="40" as="geometry" />
        </mxCell>
        <mxCell id="SSB4KYdZMmBcstQJJJUT-74" style="edgeStyle=orthogonalEdgeStyle;rounded=0;orthogonalLoop=1;jettySize=auto;html=1;entryX=1;entryY=0.5;entryDx=0;entryDy=0;" edge="1" parent="1">
          <mxGeometry relative="1" as="geometry">
            <mxPoint x="679.5" y="560" as="sourcePoint" />
            <mxPoint x="719.5" y="600" as="targetPoint" />
          </mxGeometry>
        </mxCell>
        <mxCell id="SSB4KYdZMmBcstQJJJUT-75" value="&lt;b style=&quot;mso-bidi-font-weight:normal&quot;&gt;&lt;span style=&quot;font-size:11.0pt;line-height:107%;font-family:&amp;quot;Calibri&amp;quot;,sans-serif;&lt;br/&gt;mso-ascii-theme-font:minor-latin;mso-fareast-font-family:Calibri;mso-fareast-theme-font:&lt;br/&gt;minor-latin;mso-hansi-theme-font:minor-latin;mso-bidi-font-family:&amp;quot;Times New Roman&amp;quot;;&lt;br/&gt;mso-bidi-theme-font:minor-bidi;mso-ansi-language:RU;mso-fareast-language:EN-US;&lt;br/&gt;mso-bidi-language:AR-SA&quot;&gt;a, b&lt;/span&gt;&lt;/b&gt;" style="text;whiteSpace=wrap;html=1;" vertex="1" parent="1">
          <mxGeometry x="730" y="560" width="40" height="40" as="geometry" />
        </mxCell>
        <mxCell id="SSB4KYdZMmBcstQJJJUT-77" value="&lt;b style=&quot;mso-bidi-font-weight:normal&quot;&gt;&lt;span style=&quot;font-size:11.0pt;line-height:107%;font-family:&amp;quot;Calibri&amp;quot;,sans-serif;&lt;br/&gt;mso-ascii-theme-font:minor-latin;mso-fareast-font-family:Calibri;mso-fareast-theme-font:&lt;br/&gt;minor-latin;mso-hansi-theme-font:minor-latin;mso-bidi-font-family:&amp;quot;Times New Roman&amp;quot;;&lt;br/&gt;mso-bidi-theme-font:minor-bidi;mso-ansi-language:RU;mso-fareast-language:EN-US;&lt;br/&gt;mso-bidi-language:AR-SA&quot;&gt;c&lt;/span&gt;&lt;/b&gt;" style="text;whiteSpace=wrap;html=1;" vertex="1" parent="1">
          <mxGeometry x="689.5" y="655" width="20.5" height="30" as="geometry" />
        </mxCell>
        <mxCell id="SSB4KYdZMmBcstQJJJUT-82" value="&lt;b style=&quot;mso-bidi-font-weight:normal&quot;&gt;&lt;span style=&quot;font-size:11.0pt;line-height:107%;font-family:&amp;quot;Calibri&amp;quot;,sans-serif;&lt;br/&gt;mso-ascii-theme-font:minor-latin;mso-fareast-font-family:Calibri;mso-fareast-theme-font:&lt;br/&gt;minor-latin;mso-hansi-theme-font:minor-latin;mso-bidi-font-family:&amp;quot;Times New Roman&amp;quot;;&lt;br/&gt;mso-bidi-theme-font:minor-bidi;mso-ansi-language:RU;mso-fareast-language:EN-US;&lt;br/&gt;mso-bidi-language:AR-SA&quot;&gt;d&lt;/span&gt;&lt;/b&gt;" style="text;whiteSpace=wrap;html=1;" vertex="1" parent="1">
          <mxGeometry x="720" y="620" width="40" height="40" as="geometry" />
        </mxCell>
        <mxCell id="SSB4KYdZMmBcstQJJJUT-83" style="edgeStyle=orthogonalEdgeStyle;rounded=0;orthogonalLoop=1;jettySize=auto;html=1;entryX=0.375;entryY=1.013;entryDx=0;entryDy=0;entryPerimeter=0;" edge="1" parent="1" source="SSB4KYdZMmBcstQJJJUT-15" target="SSB4KYdZMmBcstQJJJUT-16">
          <mxGeometry relative="1" as="geometry" />
        </mxCell>
        <mxCell id="SSB4KYdZMmBcstQJJJUT-84" value="&lt;b style=&quot;mso-bidi-font-weight:normal&quot;&gt;&lt;span style=&quot;font-size:11.0pt;line-height:107%;font-family:&amp;quot;Calibri&amp;quot;,sans-serif;&lt;br/&gt;mso-ascii-theme-font:minor-latin;mso-fareast-font-family:Calibri;mso-fareast-theme-font:&lt;br/&gt;minor-latin;mso-hansi-theme-font:minor-latin;mso-bidi-font-family:&amp;quot;Times New Roman&amp;quot;;&lt;br/&gt;mso-bidi-theme-font:minor-bidi;mso-ansi-language:RU;mso-fareast-language:EN-US;&lt;br/&gt;mso-bidi-language:AR-SA&quot;&gt;a&lt;/span&gt;&lt;/b&gt;" style="text;whiteSpace=wrap;html=1;" vertex="1" parent="1">
          <mxGeometry x="660" y="670" width="40" height="40" as="geometry" />
        </mxCell>
        <mxCell id="SSB4KYdZMmBcstQJJJUT-85" style="edgeStyle=orthogonalEdgeStyle;rounded=0;orthogonalLoop=1;jettySize=auto;html=1;entryX=0.988;entryY=0.638;entryDx=0;entryDy=0;entryPerimeter=0;" edge="1" parent="1" source="SSB4KYdZMmBcstQJJJUT-16" target="SSB4KYdZMmBcstQJJJUT-1">
          <mxGeometry relative="1" as="geometry" />
        </mxCell>
        <mxCell id="SSB4KYdZMmBcstQJJJUT-86" value="&lt;b style=&quot;mso-bidi-font-weight:normal&quot;&gt;&lt;span style=&quot;font-size:11.0pt;line-height:107%;font-family:&amp;quot;Calibri&amp;quot;,sans-serif;&lt;br/&gt;mso-ascii-theme-font:minor-latin;mso-fareast-font-family:Calibri;mso-fareast-theme-font:&lt;br/&gt;minor-latin;mso-hansi-theme-font:minor-latin;mso-bidi-font-family:&amp;quot;Times New Roman&amp;quot;;&lt;br/&gt;mso-bidi-theme-font:minor-bidi;mso-ansi-language:RU;mso-fareast-language:EN-US;&lt;br/&gt;mso-bidi-language:AR-SA&quot;&gt;b&lt;/span&gt;&lt;/b&gt;" style="text;whiteSpace=wrap;html=1;" vertex="1" parent="1">
          <mxGeometry x="629.5" y="580" width="40" height="40" as="geometry" />
        </mxCell>
        <mxCell id="SSB4KYdZMmBcstQJJJUT-87" style="edgeStyle=orthogonalEdgeStyle;rounded=0;orthogonalLoop=1;jettySize=auto;html=1;entryX=0.038;entryY=0.363;entryDx=0;entryDy=0;entryPerimeter=0;" edge="1" parent="1" source="SSB4KYdZMmBcstQJJJUT-15" target="SSB4KYdZMmBcstQJJJUT-13">
          <mxGeometry relative="1" as="geometry">
            <Array as="points">
              <mxPoint x="600" y="819" />
            </Array>
          </mxGeometry>
        </mxCell>
        <mxCell id="SSB4KYdZMmBcstQJJJUT-88" value="&lt;b style=&quot;mso-bidi-font-weight:normal&quot;&gt;&lt;span style=&quot;font-size:11.0pt;line-height:107%;font-family:&amp;quot;Calibri&amp;quot;,sans-serif;&lt;br/&gt;mso-ascii-theme-font:minor-latin;mso-fareast-font-family:Calibri;mso-fareast-theme-font:&lt;br/&gt;minor-latin;mso-hansi-theme-font:minor-latin;mso-bidi-font-family:&amp;quot;Times New Roman&amp;quot;;&lt;br/&gt;mso-bidi-theme-font:minor-bidi;mso-ansi-language:RU;mso-fareast-language:EN-US;&lt;br/&gt;mso-bidi-language:AR-SA&quot;&gt;c&lt;/span&gt;&lt;/b&gt;" style="text;whiteSpace=wrap;html=1;" vertex="1" parent="1">
          <mxGeometry x="610" y="740" width="20.5" height="30" as="geometry" />
        </mxCell>
        <mxCell id="SSB4KYdZMmBcstQJJJUT-90" value="&lt;b style=&quot;mso-bidi-font-weight:normal&quot;&gt;&lt;span style=&quot;font-size:11.0pt;line-height:107%;font-family:&amp;quot;Calibri&amp;quot;,sans-serif;&lt;br/&gt;mso-ascii-theme-font:minor-latin;mso-fareast-font-family:Calibri;mso-fareast-theme-font:&lt;br/&gt;minor-latin;mso-hansi-theme-font:minor-latin;mso-bidi-font-family:&amp;quot;Times New Roman&amp;quot;;&lt;br/&gt;mso-bidi-theme-font:minor-bidi;mso-ansi-language:RU;mso-fareast-language:EN-US;&lt;br/&gt;mso-bidi-language:AR-SA&quot;&gt;d&lt;/span&gt;&lt;/b&gt;" style="text;whiteSpace=wrap;html=1;" vertex="1" parent="1">
          <mxGeometry x="620" y="720" width="40" height="40" as="geometry" />
        </mxCell>
        <mxCell id="SSB4KYdZMmBcstQJJJUT-93" style="edgeStyle=orthogonalEdgeStyle;rounded=0;orthogonalLoop=1;jettySize=auto;html=1;entryX=1;entryY=0.5;entryDx=0;entryDy=0;" edge="1" parent="1">
          <mxGeometry relative="1" as="geometry">
            <mxPoint x="549.5" y="790" as="sourcePoint" />
            <mxPoint x="589.5" y="830" as="targetPoint" />
          </mxGeometry>
        </mxCell>
        <mxCell id="SSB4KYdZMmBcstQJJJUT-94" value="&lt;b style=&quot;mso-bidi-font-weight:normal&quot;&gt;&lt;span style=&quot;font-size:11.0pt;line-height:107%;font-family:&amp;quot;Calibri&amp;quot;,sans-serif;&lt;br/&gt;mso-ascii-theme-font:minor-latin;mso-fareast-font-family:Calibri;mso-fareast-theme-font:&lt;br/&gt;minor-latin;mso-hansi-theme-font:minor-latin;mso-bidi-font-family:&amp;quot;Times New Roman&amp;quot;;&lt;br/&gt;mso-bidi-theme-font:minor-bidi;mso-ansi-language:RU;mso-fareast-language:EN-US;&lt;br/&gt;mso-bidi-language:AR-SA&quot;&gt;a, b&lt;/span&gt;&lt;/b&gt;" style="text;whiteSpace=wrap;html=1;" vertex="1" parent="1">
          <mxGeometry x="540" y="760" width="40" height="40" as="geometry" />
        </mxCell>
        <mxCell id="SSB4KYdZMmBcstQJJJUT-96" value="&lt;b style=&quot;mso-bidi-font-weight:normal&quot;&gt;&lt;span style=&quot;font-size:11.0pt;line-height:107%;font-family:&amp;quot;Calibri&amp;quot;,sans-serif;&lt;br/&gt;mso-ascii-theme-font:minor-latin;mso-fareast-font-family:Calibri;mso-fareast-theme-font:&lt;br/&gt;minor-latin;mso-hansi-theme-font:minor-latin;mso-bidi-font-family:&amp;quot;Times New Roman&amp;quot;;&lt;br/&gt;mso-bidi-theme-font:minor-bidi;mso-ansi-language:RU;mso-fareast-language:EN-US;&lt;br/&gt;mso-bidi-language:AR-SA&quot;&gt;c&lt;/span&gt;&lt;/b&gt;" style="text;whiteSpace=wrap;html=1;" vertex="1" parent="1">
          <mxGeometry x="590" y="830" width="20.5" height="30" as="geometry" />
        </mxCell>
        <mxCell id="SSB4KYdZMmBcstQJJJUT-98" value="&lt;b style=&quot;mso-bidi-font-weight:normal&quot;&gt;&lt;span style=&quot;font-size:11.0pt;line-height:107%;font-family:&amp;quot;Calibri&amp;quot;,sans-serif;&lt;br/&gt;mso-ascii-theme-font:minor-latin;mso-fareast-font-family:Calibri;mso-fareast-theme-font:&lt;br/&gt;minor-latin;mso-hansi-theme-font:minor-latin;mso-bidi-font-family:&amp;quot;Times New Roman&amp;quot;;&lt;br/&gt;mso-bidi-theme-font:minor-bidi;mso-ansi-language:RU;mso-fareast-language:EN-US;&lt;br/&gt;mso-bidi-language:AR-SA&quot;&gt;d&lt;/span&gt;&lt;/b&gt;" style="text;whiteSpace=wrap;html=1;" vertex="1" parent="1">
          <mxGeometry x="480" y="860" width="40" height="40" as="geometry" />
        </mxCell>
        <mxCell id="SSB4KYdZMmBcstQJJJUT-100" value="&lt;b style=&quot;mso-bidi-font-weight:normal&quot;&gt;&lt;span style=&quot;font-size:11.0pt;line-height:107%;font-family:&amp;quot;Calibri&amp;quot;,sans-serif;&lt;br/&gt;mso-ascii-theme-font:minor-latin;mso-fareast-font-family:Calibri;mso-fareast-theme-font:&lt;br/&gt;minor-latin;mso-hansi-theme-font:minor-latin;mso-bidi-font-family:&amp;quot;Times New Roman&amp;quot;;&lt;br/&gt;mso-bidi-theme-font:minor-bidi;mso-ansi-language:RU;mso-fareast-language:EN-US;&lt;br/&gt;mso-bidi-language:AR-SA&quot;&gt;a&lt;/span&gt;&lt;/b&gt;" style="text;whiteSpace=wrap;html=1;" vertex="1" parent="1">
          <mxGeometry x="670" y="860" width="40" height="40" as="geometry" />
        </mxCell>
        <mxCell id="SSB4KYdZMmBcstQJJJUT-101" value="&lt;b style=&quot;mso-bidi-font-weight:normal&quot;&gt;&lt;span style=&quot;font-size:11.0pt;line-height:107%;font-family:&amp;quot;Calibri&amp;quot;,sans-serif;&lt;br/&gt;mso-ascii-theme-font:minor-latin;mso-fareast-font-family:Calibri;mso-fareast-theme-font:&lt;br/&gt;minor-latin;mso-hansi-theme-font:minor-latin;mso-bidi-font-family:&amp;quot;Times New Roman&amp;quot;;&lt;br/&gt;mso-bidi-theme-font:minor-bidi;mso-ansi-language:RU;mso-fareast-language:EN-US;&lt;br/&gt;mso-bidi-language:AR-SA&quot;&gt;b&lt;/span&gt;&lt;/b&gt;" style="text;whiteSpace=wrap;html=1;" vertex="1" parent="1">
          <mxGeometry x="679.75" y="770" width="40" height="40" as="geometry" />
        </mxCell>
        <mxCell id="SSB4KYdZMmBcstQJJJUT-105" value="&lt;b style=&quot;mso-bidi-font-weight:normal&quot;&gt;&lt;span style=&quot;font-size:11.0pt;line-height:107%;font-family:&amp;quot;Calibri&amp;quot;,sans-serif;&lt;br/&gt;mso-ascii-theme-font:minor-latin;mso-fareast-font-family:Calibri;mso-fareast-theme-font:&lt;br/&gt;minor-latin;mso-hansi-theme-font:minor-latin;mso-bidi-font-family:&amp;quot;Times New Roman&amp;quot;;&lt;br/&gt;mso-bidi-theme-font:minor-bidi;mso-ansi-language:RU;mso-fareast-language:EN-US;&lt;br/&gt;mso-bidi-language:AR-SA&quot;&gt;c&lt;/span&gt;&lt;/b&gt;" style="text;whiteSpace=wrap;html=1;" vertex="1" parent="1">
          <mxGeometry x="770" y="810" width="20.5" height="30" as="geometry" />
        </mxCell>
        <mxCell id="SSB4KYdZMmBcstQJJJUT-106" style="edgeStyle=orthogonalEdgeStyle;rounded=0;orthogonalLoop=1;jettySize=auto;html=1;entryX=0.905;entryY=0.161;entryDx=0;entryDy=0;entryPerimeter=0;" edge="1" parent="1" source="SSB4KYdZMmBcstQJJJUT-13" target="SSB4KYdZMmBcstQJJJUT-10">
          <mxGeometry relative="1" as="geometry">
            <Array as="points">
              <mxPoint x="710" y="920" />
              <mxPoint x="457" y="920" />
            </Array>
          </mxGeometry>
        </mxCell>
        <mxCell id="SSB4KYdZMmBcstQJJJUT-107" value="&lt;b style=&quot;mso-bidi-font-weight:normal&quot;&gt;&lt;span style=&quot;font-size:11.0pt;line-height:107%;font-family:&amp;quot;Calibri&amp;quot;,sans-serif;&lt;br/&gt;mso-ascii-theme-font:minor-latin;mso-fareast-font-family:Calibri;mso-fareast-theme-font:&lt;br/&gt;minor-latin;mso-hansi-theme-font:minor-latin;mso-bidi-font-family:&amp;quot;Times New Roman&amp;quot;;&lt;br/&gt;mso-bidi-theme-font:minor-bidi;mso-ansi-language:RU;mso-fareast-language:EN-US;&lt;br/&gt;mso-bidi-language:AR-SA&quot;&gt;d&lt;/span&gt;&lt;/b&gt;" style="text;whiteSpace=wrap;html=1;" vertex="1" parent="1">
          <mxGeometry x="710" y="880" width="40" height="40" as="geometry" />
        </mxCell>
        <mxCell id="SSB4KYdZMmBcstQJJJUT-108" style="edgeStyle=orthogonalEdgeStyle;rounded=0;orthogonalLoop=1;jettySize=auto;html=1;entryX=1;entryY=0.5;entryDx=0;entryDy=0;" edge="1" parent="1">
          <mxGeometry relative="1" as="geometry">
            <mxPoint x="799.5" y="470" as="sourcePoint" />
            <mxPoint x="839.5" y="510" as="targetPoint" />
          </mxGeometry>
        </mxCell>
        <mxCell id="SSB4KYdZMmBcstQJJJUT-109" value="&lt;b style=&quot;mso-bidi-font-weight:normal&quot;&gt;&lt;span style=&quot;font-size:11.0pt;line-height:107%;font-family:&amp;quot;Calibri&amp;quot;,sans-serif;&lt;br/&gt;mso-ascii-theme-font:minor-latin;mso-fareast-font-family:Calibri;mso-fareast-theme-font:&lt;br/&gt;minor-latin;mso-hansi-theme-font:minor-latin;mso-bidi-font-family:&amp;quot;Times New Roman&amp;quot;;&lt;br/&gt;mso-bidi-theme-font:minor-bidi;mso-ansi-language:RU;mso-fareast-language:EN-US;&lt;br/&gt;mso-bidi-language:AR-SA&quot;&gt;a, b, d&lt;/span&gt;&lt;/b&gt;" style="text;whiteSpace=wrap;html=1;" vertex="1" parent="1">
          <mxGeometry x="790.5" y="450" width="40" height="40" as="geometry" />
        </mxCell>
        <mxCell id="SSB4KYdZMmBcstQJJJUT-111" value="&lt;b style=&quot;mso-bidi-font-weight:normal&quot;&gt;&lt;span style=&quot;font-size:11.0pt;line-height:107%;font-family:&amp;quot;Calibri&amp;quot;,sans-serif;&lt;br/&gt;mso-ascii-theme-font:minor-latin;mso-fareast-font-family:Calibri;mso-fareast-theme-font:&lt;br/&gt;minor-latin;mso-hansi-theme-font:minor-latin;mso-bidi-font-family:&amp;quot;Times New Roman&amp;quot;;&lt;br/&gt;mso-bidi-theme-font:minor-bidi;mso-ansi-language:RU;mso-fareast-language:EN-US;&lt;br/&gt;mso-bidi-language:AR-SA&quot;&gt;c&lt;/span&gt;&lt;/b&gt;" style="text;whiteSpace=wrap;html=1;" vertex="1" parent="1">
          <mxGeometry x="830.5" y="540" width="40" height="40" as="geometry" />
        </mxCell>
        <mxCell id="SSB4KYdZMmBcstQJJJUT-112" style="edgeStyle=orthogonalEdgeStyle;rounded=0;orthogonalLoop=1;jettySize=auto;html=1;entryX=1;entryY=0.5;entryDx=0;entryDy=0;" edge="1" parent="1">
          <mxGeometry relative="1" as="geometry">
            <mxPoint x="939.5" y="750" as="sourcePoint" />
            <mxPoint x="979.5" y="790" as="targetPoint" />
          </mxGeometry>
        </mxCell>
        <mxCell id="SSB4KYdZMmBcstQJJJUT-113" value="&lt;b style=&quot;mso-bidi-font-weight:normal&quot;&gt;&lt;span style=&quot;font-size:11.0pt;line-height:107%;font-family:&amp;quot;Calibri&amp;quot;,sans-serif;&lt;br/&gt;mso-ascii-theme-font:minor-latin;mso-fareast-font-family:Calibri;mso-fareast-theme-font:&lt;br/&gt;minor-latin;mso-hansi-theme-font:minor-latin;mso-bidi-font-family:&amp;quot;Times New Roman&amp;quot;;&lt;br/&gt;mso-bidi-theme-font:minor-bidi;mso-ansi-language:RU;mso-fareast-language:EN-US;&lt;br/&gt;mso-bidi-language:AR-SA&quot;&gt;a, b, d&lt;/span&gt;&lt;/b&gt;" style="text;whiteSpace=wrap;html=1;" vertex="1" parent="1">
          <mxGeometry x="940" y="720" width="40" height="40" as="geometry" />
        </mxCell>
        <mxCell id="SSB4KYdZMmBcstQJJJUT-114" style="edgeStyle=orthogonalEdgeStyle;rounded=0;orthogonalLoop=1;jettySize=auto;html=1;entryX=1.003;entryY=0.588;entryDx=0;entryDy=0;entryPerimeter=0;" edge="1" parent="1" source="SSB4KYdZMmBcstQJJJUT-8" target="SSB4KYdZMmBcstQJJJUT-9">
          <mxGeometry relative="1" as="geometry">
            <Array as="points">
              <mxPoint x="940" y="1030" />
              <mxPoint x="820" y="1030" />
              <mxPoint x="820" y="1027" />
            </Array>
          </mxGeometry>
        </mxCell>
        <mxCell id="SSB4KYdZMmBcstQJJJUT-115" value="&lt;b style=&quot;mso-bidi-font-weight:normal&quot;&gt;&lt;span style=&quot;font-size:11.0pt;line-height:107%;font-family:&amp;quot;Calibri&amp;quot;,sans-serif;&lt;br/&gt;mso-ascii-theme-font:minor-latin;mso-fareast-font-family:Calibri;mso-fareast-theme-font:&lt;br/&gt;minor-latin;mso-hansi-theme-font:minor-latin;mso-bidi-font-family:&amp;quot;Times New Roman&amp;quot;;&lt;br/&gt;mso-bidi-theme-font:minor-bidi;mso-ansi-language:RU;mso-fareast-language:EN-US;&lt;br/&gt;mso-bidi-language:AR-SA&quot;&gt;c&lt;/span&gt;&lt;/b&gt;" style="text;whiteSpace=wrap;html=1;" vertex="1" parent="1">
          <mxGeometry x="950" y="830" width="40" height="40" as="geometry" />
        </mxCell>
        <mxCell id="SSB4KYdZMmBcstQJJJUT-116" style="edgeStyle=orthogonalEdgeStyle;rounded=0;orthogonalLoop=1;jettySize=auto;html=1;entryX=1;entryY=0.75;entryDx=0;entryDy=0;entryPerimeter=0;" edge="1" parent="1" source="SSB4KYdZMmBcstQJJJUT-11" target="SSB4KYdZMmBcstQJJJUT-8">
          <mxGeometry relative="1" as="geometry">
            <Array as="points">
              <mxPoint x="1110" y="740" />
              <mxPoint x="1025" y="740" />
              <mxPoint x="1025" y="810" />
            </Array>
          </mxGeometry>
        </mxCell>
        <mxCell id="SSB4KYdZMmBcstQJJJUT-117" value="&lt;b style=&quot;mso-bidi-font-weight:normal&quot;&gt;&lt;span style=&quot;font-size:11.0pt;line-height:107%;font-family:&amp;quot;Calibri&amp;quot;,sans-serif;&lt;br/&gt;mso-ascii-theme-font:minor-latin;mso-fareast-font-family:Calibri;mso-fareast-theme-font:&lt;br/&gt;minor-latin;mso-hansi-theme-font:minor-latin;mso-bidi-font-family:&amp;quot;Times New Roman&amp;quot;;&lt;br/&gt;mso-bidi-theme-font:minor-bidi;mso-ansi-language:RU;mso-fareast-language:EN-US;&lt;br/&gt;mso-bidi-language:AR-SA&quot;&gt;a,&amp;nbsp; d&lt;/span&gt;&lt;/b&gt;" style="text;whiteSpace=wrap;html=1;" vertex="1" parent="1">
          <mxGeometry x="1060" y="710" width="40" height="40" as="geometry" />
        </mxCell>
        <mxCell id="SSB4KYdZMmBcstQJJJUT-118" value="&lt;b style=&quot;mso-bidi-font-weight:normal&quot;&gt;&lt;span style=&quot;font-size:11.0pt;line-height:107%;font-family:&amp;quot;Calibri&amp;quot;,sans-serif;&lt;br/&gt;mso-ascii-theme-font:minor-latin;mso-fareast-font-family:Calibri;mso-fareast-theme-font:&lt;br/&gt;minor-latin;mso-hansi-theme-font:minor-latin;mso-bidi-font-family:&amp;quot;Times New Roman&amp;quot;;&lt;br/&gt;mso-bidi-theme-font:minor-bidi;mso-ansi-language:RU;mso-fareast-language:EN-US;&lt;br/&gt;mso-bidi-language:AR-SA&quot;&gt;b&lt;/span&gt;&lt;/b&gt;" style="text;whiteSpace=wrap;html=1;" vertex="1" parent="1">
          <mxGeometry x="1040" y="630" width="40" height="40" as="geometry" />
        </mxCell>
        <mxCell id="SSB4KYdZMmBcstQJJJUT-120" style="edgeStyle=orthogonalEdgeStyle;rounded=0;orthogonalLoop=1;jettySize=auto;html=1;entryX=0.903;entryY=0.775;entryDx=0;entryDy=0;entryPerimeter=0;" edge="1" parent="1" source="SSB4KYdZMmBcstQJJJUT-11" target="SSB4KYdZMmBcstQJJJUT-9">
          <mxGeometry relative="1" as="geometry">
            <Array as="points">
              <mxPoint x="1150" y="1042" />
            </Array>
          </mxGeometry>
        </mxCell>
        <mxCell id="SSB4KYdZMmBcstQJJJUT-121" value="&lt;b style=&quot;mso-bidi-font-weight:normal&quot;&gt;&lt;span style=&quot;font-size:11.0pt;line-height:107%;font-family:&amp;quot;Calibri&amp;quot;,sans-serif;&lt;br/&gt;mso-ascii-theme-font:minor-latin;mso-fareast-font-family:Calibri;mso-fareast-theme-font:&lt;br/&gt;minor-latin;mso-hansi-theme-font:minor-latin;mso-bidi-font-family:&amp;quot;Times New Roman&amp;quot;;&lt;br/&gt;mso-bidi-theme-font:minor-bidi;mso-ansi-language:RU;mso-fareast-language:EN-US;&lt;br/&gt;mso-bidi-language:AR-SA&quot;&gt;c&lt;/span&gt;&lt;/b&gt;" style="text;whiteSpace=wrap;html=1;" vertex="1" parent="1">
          <mxGeometry x="1150" y="700" width="40" height="40" as="geometry" />
        </mxCell>
        <mxCell id="SSB4KYdZMmBcstQJJJUT-122" style="edgeStyle=orthogonalEdgeStyle;rounded=0;orthogonalLoop=1;jettySize=auto;html=1;entryX=0.5;entryY=1;entryDx=0;entryDy=0;" edge="1" parent="1" source="SSB4KYdZMmBcstQJJJUT-10" target="SSB4KYdZMmBcstQJJJUT-10">
          <mxGeometry relative="1" as="geometry">
            <Array as="points">
              <mxPoint x="360" y="990" />
              <mxPoint x="360" y="1080" />
              <mxPoint x="425" y="1080" />
            </Array>
          </mxGeometry>
        </mxCell>
        <mxCell id="SSB4KYdZMmBcstQJJJUT-123" value="&lt;b style=&quot;mso-bidi-font-weight:normal&quot;&gt;&lt;span style=&quot;font-size:11.0pt;line-height:107%;font-family:&amp;quot;Calibri&amp;quot;,sans-serif;&lt;br/&gt;mso-ascii-theme-font:minor-latin;mso-fareast-font-family:Calibri;mso-fareast-theme-font:&lt;br/&gt;minor-latin;mso-hansi-theme-font:minor-latin;mso-bidi-font-family:&amp;quot;Times New Roman&amp;quot;;&lt;br/&gt;mso-bidi-theme-font:minor-bidi;mso-ansi-language:RU;mso-fareast-language:EN-US;&lt;br/&gt;mso-bidi-language:AR-SA&quot;&gt;a, b, d&lt;/span&gt;&lt;/b&gt;" style="text;whiteSpace=wrap;html=1;" vertex="1" parent="1">
          <mxGeometry x="305" y="1020" width="40" height="40" as="geometry" />
        </mxCell>
        <mxCell id="SSB4KYdZMmBcstQJJJUT-125" value="&lt;b style=&quot;mso-bidi-font-weight:normal&quot;&gt;&lt;span style=&quot;font-size:11.0pt;line-height:107%;font-family:&amp;quot;Calibri&amp;quot;,sans-serif;&lt;br/&gt;mso-ascii-theme-font:minor-latin;mso-fareast-font-family:Calibri;mso-fareast-theme-font:&lt;br/&gt;minor-latin;mso-hansi-theme-font:minor-latin;mso-bidi-font-family:&amp;quot;Times New Roman&amp;quot;;&lt;br/&gt;mso-bidi-theme-font:minor-bidi;mso-ansi-language:RU;mso-fareast-language:EN-US;&lt;br/&gt;mso-bidi-language:AR-SA&quot;&gt;c&lt;/span&gt;&lt;/b&gt;" style="text;whiteSpace=wrap;html=1;" vertex="1" parent="1">
          <mxGeometry x="470" y="1030" width="40" height="40" as="geometry" />
        </mxCell>
        <mxCell id="SSB4KYdZMmBcstQJJJUT-126" style="edgeStyle=orthogonalEdgeStyle;rounded=0;orthogonalLoop=1;jettySize=auto;html=1;entryX=0.688;entryY=1;entryDx=0;entryDy=0;entryPerimeter=0;" edge="1" parent="1" source="SSB4KYdZMmBcstQJJJUT-9" target="SSB4KYdZMmBcstQJJJUT-10">
          <mxGeometry relative="1" as="geometry">
            <Array as="points">
              <mxPoint x="700" y="1080" />
              <mxPoint x="440" y="1080" />
            </Array>
          </mxGeometry>
        </mxCell>
        <mxCell id="SSB4KYdZMmBcstQJJJUT-127" value="&lt;b style=&quot;mso-bidi-font-weight:normal&quot;&gt;&lt;span style=&quot;font-size:11.0pt;line-height:107%;font-family:&amp;quot;Calibri&amp;quot;,sans-serif;&lt;br/&gt;mso-ascii-theme-font:minor-latin;mso-fareast-font-family:Calibri;mso-fareast-theme-font:&lt;br/&gt;minor-latin;mso-hansi-theme-font:minor-latin;mso-bidi-font-family:&amp;quot;Times New Roman&amp;quot;;&lt;br/&gt;mso-bidi-theme-font:minor-bidi;mso-ansi-language:RU;mso-fareast-language:EN-US;&lt;br/&gt;mso-bidi-language:AR-SA&quot;&gt;a,&amp;nbsp; d&lt;/span&gt;&lt;/b&gt;" style="text;whiteSpace=wrap;html=1;" vertex="1" parent="1">
          <mxGeometry x="710" y="1060" width="40" height="40" as="geometry" />
        </mxCell>
        <mxCell id="SSB4KYdZMmBcstQJJJUT-128" value="&lt;b style=&quot;mso-bidi-font-weight:normal&quot;&gt;&lt;span style=&quot;font-size:11.0pt;line-height:107%;font-family:&amp;quot;Calibri&amp;quot;,sans-serif;&lt;br/&gt;mso-ascii-theme-font:minor-latin;mso-fareast-font-family:Calibri;mso-fareast-theme-font:&lt;br/&gt;minor-latin;mso-hansi-theme-font:minor-latin;mso-bidi-font-family:&amp;quot;Times New Roman&amp;quot;;&lt;br/&gt;mso-bidi-theme-font:minor-bidi;mso-ansi-language:RU;mso-fareast-language:EN-US;&lt;br/&gt;mso-bidi-language:AR-SA&quot;&gt;b&lt;/span&gt;&lt;/b&gt;" style="text;whiteSpace=wrap;html=1;" vertex="1" parent="1">
          <mxGeometry x="649.5" y="950" width="40" height="40" as="geometry" />
        </mxCell>
        <mxCell id="SSB4KYdZMmBcstQJJJUT-129" style="edgeStyle=orthogonalEdgeStyle;rounded=0;orthogonalLoop=1;jettySize=auto;html=1;entryX=0.65;entryY=1.025;entryDx=0;entryDy=0;entryPerimeter=0;" edge="1" parent="1" source="SSB4KYdZMmBcstQJJJUT-9" target="SSB4KYdZMmBcstQJJJUT-1">
          <mxGeometry relative="1" as="geometry">
            <Array as="points">
              <mxPoint x="492" y="980" />
            </Array>
          </mxGeometry>
        </mxCell>
      </root>
    </mxGraphModel>
  </diagram>
</mxfile>
